<svg width="60" height="55" viewBox="0 0 60 55" fill="none" xmlns="http://www.w3.org/2000/svg">
<rect x="4.99988" y="14.9995" width="43" height="31" fill="#036548"/>
<path d="M46 14H8C5.79086 14 4 15.7909 4 18V20" stroke="#00875F" stroke-width="2"/>
<path d="M18.5909 9.74185L35.5031 18.4008L28.4938 26.6953L20.3213 48.0532L3.40909 39.3942L11.9216 27.9653L18.5909 9.74185Z" fill="#FEFEFE"/>
<path d="M14.1084 14.294L14.1084 14.294C15.096 12.5141 16.3618 10.9015 18.0821 9.54691C18.4412 9.26409 18.9739 9.23134 19.4117 9.47383L34.3581 17.7677C34.9688 18.1066 35.1458 18.8501 34.8191 19.439C34.7551 19.5543 34.6712 19.6639 34.5659 19.7635C33.2538 21.003 32.232 22.3976 31.4036 23.8906C29.7632 26.8466 28.8742 30.2062 28.0043 33.4932L27.996 33.5248C27.1172 36.8457 26.2553 40.0921 24.6807 42.9296C23.6931 44.7094 22.4273 46.322 20.7067 47.6763L20.7063 47.6766C20.3478 47.9593 19.815 47.9919 19.378 47.7494L4.43078 39.4551C3.82015 39.1162 3.64307 38.3727 3.96983 37.7839C4.03383 37.6685 4.11769 37.5589 4.22299 37.4594C5.53507 36.2198 6.55689 34.8252 7.38535 33.3322C9.02554 30.3764 9.9145 27.0173 10.7843 23.7306L10.7929 23.6983C11.6717 20.3776 12.5336 17.1314 14.1084 14.294ZM6.08663 37.849L5.64894 38.3169L6.20917 38.6278L9.05812 40.2087L9.49532 40.4513L9.73792 40.0141C10.6671 38.3397 10.2436 36.2835 8.83589 35.088L8.3997 34.7175L8.09114 35.1995C7.47159 36.1672 6.82182 37.0631 6.08663 37.849ZM17.1908 44.1498L16.9482 44.587L17.3854 44.8296L19.6365 46.0787L19.8791 45.6415L20.2072 46.0189C21.1133 45.231 21.9051 44.3222 22.6028 43.2728L22.9166 42.8009L22.4092 42.5484C20.5273 41.6117 18.2221 42.2914 17.1908 44.1498ZM32.7025 19.3746L33.1402 18.9067L32.58 18.5958L29.8606 17.0868L29.3644 16.8115L29.1537 17.3383C28.5345 18.8864 28.9547 20.6465 30.1869 21.7448L30.6148 22.1262L30.9346 21.6505C31.4877 20.8276 32.0625 20.0586 32.7025 19.3746ZM21.6167 13.1558L21.952 12.6982L21.456 12.423L19.1526 11.1448L18.8462 10.9748L18.5818 11.2048C17.7817 11.9011 17.0795 12.6995 16.4467 13.5911L16.1136 14.0605L16.625 14.3247C18.3714 15.2267 20.4808 14.7054 21.6167 13.1558ZM17.0605 32.8181C19.7213 34.2946 23.0258 33.7589 24.3547 31.3642C25.6829 28.9705 24.3906 25.8826 21.7287 24.4055C19.0673 22.9287 15.763 23.4652 14.4345 25.8594C13.1059 28.2536 14.3991 31.3412 17.0605 32.8181Z" fill="#00B37E" stroke="#036548"/>
<path d="M29.6022 4.05701L45.7774 14.0251L38.1347 21.7398L28.3003 42.3853L12.1251 32.4172L21.514 21.6966L29.6022 4.05701Z" fill="#FEFEFE"/>
<path d="M24.774 8.24079L24.7741 8.24076C25.8993 6.54449 27.2885 5.03694 29.1104 3.82249C29.4908 3.56893 30.0244 3.57837 30.4417 3.8547L44.6861 13.3036C45.268 13.6896 45.3858 14.4448 45.0135 15.006C44.9406 15.1159 44.8483 15.2186 44.7355 15.3095C43.3296 16.4415 42.2008 17.751 41.257 19.1739C39.3882 21.991 38.2365 25.2698 37.1097 28.4779L37.0988 28.5087C35.9604 31.7498 34.8447 34.9179 33.0509 37.6222C31.9257 39.3184 30.5365 40.8259 28.7142 42.0401L28.7138 42.0403C28.3341 42.2938 27.8004 42.2843 27.3839 42.008L13.1388 32.5586C12.5568 32.1726 12.439 31.4174 12.8113 30.8562C12.8842 30.7462 12.9765 30.6436 13.0893 30.5527C14.4952 29.4207 15.624 28.1111 16.5678 26.6883C18.4364 23.8713 19.588 20.593 20.7148 17.3853L20.7259 17.3537C21.8643 14.1128 22.98 10.9449 24.774 8.24079ZM14.9163 31.0884L14.443 31.5202L14.9769 31.8744L17.6921 33.6754L18.1088 33.9518L18.3851 33.5352C19.4437 31.9394 19.184 29.8562 17.8751 28.5532L17.4696 28.1494L17.1239 28.6055C16.4298 29.5212 15.7113 30.363 14.9163 31.0884ZM25.488 38.2468L25.2116 38.6634L25.6283 38.9398L27.7736 40.3629L28.05 39.9463L28.3472 40.3483C29.3127 39.6345 30.1739 38.7911 30.9523 37.8002L31.3024 37.3545L30.8166 37.0627C29.0145 35.9803 26.6629 36.4756 25.488 38.2468ZM42.9086 14.7746L43.382 14.3427L42.848 13.9885L40.2563 12.2694L39.7835 11.9557L39.5318 12.4642C38.7922 13.9586 39.0721 15.7464 40.2136 16.9386L40.6101 17.3526L40.9664 16.9037C41.5829 16.127 42.2166 15.4059 42.9086 14.7746ZM32.3488 7.69933L32.7193 7.26973L32.2465 6.95615L30.0513 5.49999L29.7593 5.30626L29.4776 5.51471C28.6249 6.14556 27.8618 6.88602 27.1606 7.7248L26.7914 8.16644L27.2804 8.47021C28.95 9.50741 31.094 9.15442 32.3488 7.69933ZM26.2533 26.9402C28.7892 28.6223 32.1257 28.3494 33.6396 26.0671C35.1528 23.7859 34.1085 20.6056 31.5716 18.9227C29.0352 17.2402 25.6989 17.514 24.1854 19.7958C22.6718 22.0775 23.7169 25.2577 26.2533 26.9402Z" fill="#00B37E" stroke="#036548"/>
<path d="M39.8995 7.93137L54.0382 20.6238L45.1423 26.8522L31.7843 45.4133L17.6457 32.7208L28.7956 23.8461L39.8995 7.93137Z" fill="#FEFEFE"/>
<path d="M34.4027 11.1872L34.4028 11.1872C35.8124 9.71874 37.4482 8.48306 39.4574 7.61292C39.8769 7.43125 40.4003 7.53568 40.7616 7.88198L53.0929 19.7193C53.5967 20.2029 53.578 20.967 53.1116 21.4528C53.0203 21.548 52.9112 21.6326 52.7839 21.7019C51.1987 22.5651 49.8545 23.6523 48.6721 24.8841C46.331 27.3229 44.6131 30.3438 42.9323 33.2996L42.9162 33.3279C41.2181 36.314 39.5554 39.2325 37.3081 41.5736C35.8985 43.042 34.2627 44.2777 32.2532 45.1474L32.2528 45.1476C31.8339 45.3294 31.3105 45.2248 30.9499 44.8787L18.6179 33.0407C18.1141 32.5571 18.1329 31.793 18.5992 31.3072C18.6906 31.212 18.7997 31.1275 18.9269 31.0581C20.5122 30.1949 21.8564 29.1077 23.0388 27.8759C25.3797 25.4373 27.0974 22.4168 28.778 19.4614L28.7945 19.4323C30.4926 16.4464 32.1553 13.5281 34.4027 11.1872ZM20.6291 31.911L20.0864 32.2515L20.5486 32.6952L22.8991 34.9515L23.2598 35.2978L23.6061 34.9371C24.9322 33.5556 25.0482 31.4595 23.9926 29.944L23.6655 29.4744L23.2441 29.8615C22.3978 30.6388 21.5407 31.339 20.6291 31.911ZM29.755 40.8397L29.4088 41.2004L29.7695 41.5466L31.6267 43.3295L31.973 42.9687L32.1938 43.4174C33.271 42.8872 34.2688 42.2108 35.2114 41.3745L35.6354 40.9984L35.2094 40.6247C33.6292 39.2383 31.2269 39.3064 29.755 40.8397ZM51.0817 20.8498L51.6245 20.5093L51.1622 20.0655L48.9186 17.9118L48.5093 17.5189L48.171 17.9744C47.1767 19.3129 47.1333 21.122 48.0441 22.4986L48.3603 22.9767L48.791 22.5985C49.536 21.9442 50.2882 21.3476 51.0817 20.8498ZM41.9526 12.0051L42.3938 11.6484L41.9845 11.2556L40.0842 9.43131L39.8313 9.18861L39.5169 9.34349C38.5655 9.81221 37.6826 10.4047 36.8431 11.105L36.401 11.4738L36.828 11.8599C38.2859 13.1781 40.4586 13.2131 41.9526 12.0051ZM32.5241 29.8507C34.7195 31.9581 38.0511 32.2844 39.9477 30.3087C41.8434 28.3338 41.3829 25.0183 39.1867 22.91C36.991 20.8023 33.6593 20.4768 31.7632 22.4521C29.867 24.4274 30.3284 27.7429 32.5241 29.8507Z" fill="#00B37E" stroke="#036548"/>
<rect x="41.9999" y="35.6317" width="8" height="3" rx="1.5" fill="#D9D9D9"/>
<path d="M2.99988 19.6317H44.9999C49.4182 19.6317 52.9999 23.2134 52.9999 27.6317V46.6317C52.9999 51.05 49.4182 54.6317 44.9999 54.6317H10.9999C6.5816 54.6317 2.99988 51.05 2.99988 46.6317V19.6317Z" fill="#00875F"/>
<path d="M28.7499 35.3817C28.2499 35.2567 27.7499 35.0067 27.3749 34.6317C26.9999 34.5067 26.8749 34.1317 26.8749 33.8817C26.8749 33.6317 26.9999 33.2567 27.2499 33.1317C27.6249 32.8817 27.9999 32.6317 28.3749 32.7567C29.1249 32.7567 29.7499 33.1317 30.1249 33.6317L31.2499 32.1317C30.8749 31.7567 30.4999 31.5067 30.1249 31.2567C29.7499 31.0067 29.2499 30.8817 28.7499 30.8817V29.1317H27.2499V30.8817C26.6249 31.0067 25.9999 31.3817 25.4999 31.8817C24.9999 32.5067 24.6249 33.2567 24.7499 34.0067C24.7499 34.7567 24.9999 35.5067 25.4999 36.0067C26.1249 36.6317 26.9999 37.0067 27.7499 37.3817C28.1249 37.5067 28.6249 37.7567 28.9999 38.0067C29.2499 38.2567 29.3749 38.6317 29.3749 39.0067C29.3749 39.3817 29.2499 39.7567 28.9999 40.1317C28.6249 40.5067 28.1249 40.6317 27.7499 40.6317C27.2499 40.6317 26.6249 40.5067 26.2499 40.1317C25.8749 39.8817 25.4999 39.5067 25.2499 39.1317L23.9999 40.5067C24.3749 41.0067 24.7499 41.3817 25.2499 41.7567C25.8749 42.1317 26.6249 42.5067 27.3749 42.5067V44.1317H28.7499V42.2567C29.4999 42.1317 30.1249 41.7567 30.6249 41.2567C31.2499 40.6317 31.6249 39.6317 31.6249 38.7567C31.6249 38.0067 31.3749 37.1317 30.7499 36.6317C30.1249 36.0067 29.4999 35.6317 28.7499 35.3817V35.3817ZM27.9999 26.6317C22.4999 26.6317 17.9999 31.1317 17.9999 36.6317C17.9999 42.1317 22.4999 46.6317 27.9999 46.6317C33.4999 46.6317 37.9999 42.1317 37.9999 36.6317C37.9999 31.1317 33.4999 26.6317 27.9999 26.6317ZM27.9999 45.2567C23.2499 45.2567 19.3749 41.3817 19.3749 36.6317C19.3749 31.8817 23.2499 28.0067 27.9999 28.0067C32.7499 28.0067 36.6249 31.8817 36.6249 36.6317C36.6249 41.3817 32.7499 45.2567 27.9999 45.2567V45.2567Z" fill="#FEFEFE"/>
<rect x="42.2499" y="34.2496" width="11.5" height="5.5" rx="0.75" fill="#00B37E" stroke="#036548" stroke-width="0.5"/>
<circle cx="44.9999" cy="36.9996" r="1.75" fill="#FEFEFE" stroke="#036548" stroke-width="0.5"/>
</svg>
